<svg xmlns="http://www.w3.org/2000/svg" width="375" viewBox="0 0 375 375" height="375" version="1.0"><defs><clipPath id="a"><path d="M 18.027344 85 L 220 85 L 220 264 L 18.027344 264 Z M 18.027344 85"/></clipPath><clipPath id="b"><path d="M 220.484375 83 L 359 83 L 359 265.867188 L 220.484375 265.867188 Z M 220.484375 83"/></clipPath></defs><path fill="#FFF" d="M-37.5 -37.5H412.5V412.5H-37.5z"/><path fill="#FFF" d="M-37.5 -37.5H412.5V412.5H-37.5z"/><path fill="#FFF" d="M-37.5 -37.5H412.5V412.5H-37.5z"/><g clip-path="url(#a)"><path d="M 167.277344 123.378906 C 171.542969 122.351562 175.335938 121.875 178.730469 120.609375 C 184.027344 118.554688 189.082031 116.023438 194.21875 113.574219 C 197.457031 111.992188 200.460938 110.015625 203.699219 108.511719 C 209.230469 105.984375 214.285156 107.246094 217.367188 111.675781 C 220.210938 115.707031 219.816406 120.847656 215.867188 125.195312 C 213.496094 127.886719 210.730469 130.257812 207.808594 132.234375 C 195.164062 140.378906 181.496094 145.441406 166.40625 146.390625 C 165.457031 146.46875 164.511719 146.46875 163.5625 146.46875 C 162.851562 146.46875 162.0625 146.546875 160.957031 146.625 C 160.324219 148.050781 159.535156 149.550781 158.902344 151.132812 C 149.261719 173.433594 139.941406 195.730469 130.0625 217.871094 C 127.140625 224.355469 123.03125 230.363281 119.003906 236.375 C 116.472656 240.25 112.445312 242.859375 107.863281 243.726562 C 100.515625 245.070312 94.511719 242.304688 90.875 236.136719 C 87.875 230.917969 85.503906 225.304688 83.84375 219.53125 C 82.183594 214.152344 81.554688 208.460938 80.210938 201.820312 C 79.183594 203.953125 78.394531 205.0625 77.917969 206.324219 C 73.652344 217.238281 69.542969 228.308594 65.199219 239.140625 C 63.460938 243.332031 61.484375 247.445312 59.195312 251.320312 C 57.691406 253.929688 55.796875 256.378906 53.585938 258.433594 C 45.683594 265.867188 34.78125 264.761719 28.382812 255.984375 C 25.21875 251.476562 23.167969 246.257812 22.375 240.800781 C 21.347656 234.632812 20.636719 228.464844 20.164062 222.21875 C 19.609375 212.96875 19.53125 203.714844 19.058594 194.386719 C 18.269531 177.9375 20.402344 161.808594 22.851562 145.675781 C 23.324219 142.277344 23.640625 138.875 24.589844 135.636719 C 26.328125 129.625 30.988281 126.542969 36.441406 127.492188 C 41.890625 128.4375 45.289062 132.710938 44.894531 139.035156 C 44.183594 150.738281 42.679688 162.519531 42.601562 174.222656 C 42.445312 191.066406 43.234375 207.90625 43.628906 224.75 C 43.628906 225.621094 43.867188 226.488281 44.183594 228.625 C 45.210938 226.410156 45.839844 225.304688 46.316406 224.117188 C 54.925781 202.054688 63.699219 180.074219 72.070312 157.933594 C 74.679688 151.054688 76.101562 143.78125 78.15625 136.664062 C 78.550781 134.84375 79.105469 133.027344 79.734375 131.207031 C 82.265625 125.433594 88.980469 122.824219 94.746094 125.355469 C 98.222656 126.859375 100.75 130.019531 101.382812 133.738281 C 101.699219 135.398438 101.699219 137.136719 101.542969 138.796875 C 99.882812 162.363281 101.542969 185.6875 105.175781 209.015625 C 105.335938 209.882812 105.570312 210.753906 106.046875 212.574219 C 107.230469 211.070312 108.179688 210.28125 108.574219 209.25 C 118.527344 186.164062 128.40625 162.992188 138.359375 139.824219 C 139.625 136.820312 139.148438 134.605469 137.492188 131.917969 C 133.304688 125.039062 131.484375 117.054688 132.355469 109.066406 C 132.988281 101.632812 136.621094 94.753906 142.390625 89.929688 C 151 82.417969 162.695312 85.34375 166.800781 96.175781 C 168.777344 101.394531 169.015625 106.929688 168.460938 112.464844 C 168.066406 115.867188 167.75 119.1875 167.277344 123.378906 Z M 167.277344 123.378906"/></g><g clip-path="url(#b)"><path d="M 296.761719 142.46875 C 311.160156 146.839844 323.675781 154.984375 335.074219 164.84375 C 339.957031 168.871094 344.5 173.414062 348.445312 178.386719 C 363.871094 198.191406 360.527344 224.679688 340.816406 240.367188 C 338.585938 242.167969 336.1875 243.796875 333.703125 245.253906 C 313.476562 255.714844 292.5625 263.773438 269.421875 264.714844 C 262.652344 264.972656 255.882812 265.742188 249.109375 265.65625 C 244.824219 265.570312 240.625 264.714844 236.425781 263.773438 C 230.339844 262.398438 227 258.199219 226.3125 252.113281 C 224.941406 240.023438 223.140625 228.023438 222.800781 215.9375 C 221.941406 185.757812 221.769531 155.582031 221.34375 125.40625 C 221.257812 117.089844 221.085938 108.863281 220.742188 100.632812 C 220.484375 92.917969 228.628906 83.914062 237.113281 83.402344 C 251.9375 82.542969 266.765625 83.65625 281.078125 87.6875 C 295.992188 91.886719 305.503906 108.175781 302.332031 124.121094 C 301.132812 130.035156 298.820312 135.867188 296.761719 142.46875 Z M 250.824219 242.511719 C 254.851562 242.082031 258.710938 241.652344 262.480469 241.3125 C 282.191406 239.683594 300.621094 233.59375 318.359375 225.195312 C 333.875 217.820312 338.84375 202.304688 323.847656 188.074219 C 306.363281 171.441406 285.792969 162.699219 261.964844 161.15625 C 257.167969 160.8125 252.28125 159.871094 247.3125 161.414062 C 246.96875 188.503906 246.539062 215.335938 250.824219 242.511719 Z M 244.570312 106.546875 C 244.996094 115.71875 245.425781 124.207031 245.941406 133.207031 C 251.597656 133.980469 256.652344 135.265625 261.710938 135.09375 C 270.453125 135.007812 277.566406 127.722656 277.566406 118.890625 C 277.566406 114.605469 276.195312 112.121094 272.25 111.003906 C 263.167969 108.347656 253.910156 106.890625 244.570312 106.546875 Z M 244.570312 106.546875"/></g><path d="M 185.414062 374.703125 C 135.910156 374.703125 89.296875 355.4375 54.320312 320.382812 C 19.269531 285.40625 0 238.792969 0 189.289062 C 0 139.785156 19.269531 93.175781 54.320312 58.195312 C 89.296875 23.144531 135.910156 3.875 185.414062 3.875 C 234.917969 3.875 281.53125 23.144531 316.507812 58.195312 C 351.558594 93.25 370.828125 139.785156 370.828125 189.289062 C 370.828125 238.792969 351.558594 285.40625 316.507812 320.382812 C 281.53125 355.4375 234.917969 374.703125 185.414062 374.703125 Z M 185.414062 14.992188 C 138.875 14.992188 95.078125 33.148438 62.175781 66.050781 C 29.273438 98.953125 11.117188 142.75 11.117188 189.289062 C 11.117188 235.828125 29.273438 279.625 62.175781 312.527344 C 95.078125 345.429688 138.875 363.585938 185.414062 363.585938 C 231.953125 363.585938 275.75 345.429688 308.652344 312.527344 C 341.554688 279.625 359.710938 235.828125 359.710938 189.289062 C 359.710938 142.75 341.554688 98.953125 308.652344 66.050781 C 275.75 33.148438 231.953125 14.992188 185.414062 14.992188 Z M 185.414062 14.992188"/></svg>