<?xml version="1.0" encoding="utf-8"?>
<!-- Generator: Adobe Illustrator 21.0.2, SVG Export Plug-In . SVG Version: 6.00 Build 0)  -->
<svg version="1.1" id="Layer_1" xmlns="http://www.w3.org/2000/svg" xmlns:xlink="http://www.w3.org/1999/xlink" x="0px" y="0px"
	 width="1400px" height="980px" viewBox="0 0 1400 980" enable-background="new 0 0 1400 980" xml:space="preserve">
<g>
	<g>
		<rect fill="#FED928" width="1400" height="980"/>
	</g>
	<g>
		<polygon fill="#2D3A4A" points="37,57.5 53.9,37 37,37 		"/>
		<polygon fill="#2D3A4A" points="109.9,62 146.2,62 166.8,37 130.5,37 		"/>
		<polygon fill="#2D3A4A" points="62,164.2 62,120.1 37,150.4 37,194.5 		"/>
		<polygon fill="#2D3A4A" points="62,301.1 62,257.1 37,287.4 37,331.5 		"/>
		<polygon fill="#2D3A4A" points="222.8,62 259.1,62 279.7,37 243.4,37 		"/>
		<polygon fill="#2D3A4A" points="335.6,62 371.9,62 392.5,37 356.2,37 		"/>
		<polygon fill="#2D3A4A" points="62,438.1 62,394 37,424.4 37,468.4 		"/>
		<polygon fill="#2D3A4A" points="448.5,62 484.8,62 505.4,37 469.1,37 		"/>
		<polygon fill="#2D3A4A" points="62,575.1 62,531 37,561.4 37,605.4 		"/>
		<polygon fill="#2D3A4A" points="62,712 62,668 37,698.3 37,742.4 		"/>
		<polygon fill="#2D3A4A" points="561.4,62 597.7,62 618.3,37 582,37 		"/>
		<polygon fill="#2D3A4A" points="62,849 62,805 37,835.3 37,879.3 		"/>
		<polygon fill="#2D3A4A" points="674.2,62 710.5,62 731.1,37 694.8,37 		"/>
		<polygon fill="#2D3A4A" points="118,918 81.7,918 61.1,943 97.4,943 		"/>
		<polygon fill="#2D3A4A" points="787.1,62 823.4,62 844,37 807.7,37 		"/>
		<polygon fill="#2D3A4A" points="900,62 936.3,62 956.9,37 920.6,37 		"/>
		<polygon fill="#2D3A4A" points="230.9,918 194.6,918 174,943 210.3,943 		"/>
		<polygon fill="#2D3A4A" points="343.8,918 307.5,918 286.9,943 323.2,943 		"/>
		<polygon fill="#2D3A4A" points="1012.9,62 1049.2,62 1069.8,37 1033.5,37 		"/>
		<polygon fill="#2D3A4A" points="1125.7,62 1162,62 1182.6,37 1146.3,37 		"/>
		<polygon fill="#2D3A4A" points="456.6,918 420.3,918 399.7,943 436,943 		"/>
		<polygon fill="#2D3A4A" points="1238.6,62 1274.9,62 1295.5,37 1259.2,37 		"/>
		<polygon fill="#2D3A4A" points="569.5,918 533.2,918 512.6,943 548.9,943 		"/>
		<polygon fill="#2D3A4A" points="1338,78.3 1338,122.4 1363,92.1 1363,48 		"/>
		<polygon fill="#2D3A4A" points="682.4,918 646.1,918 625.5,943 661.8,943 		"/>
		<polygon fill="#2D3A4A" points="1338,215.3 1338,259.4 1363,229 1363,185 		"/>
		<polygon fill="#2D3A4A" points="795.2,918 758.9,918 738.3,943 774.6,943 		"/>
		<polygon fill="#2D3A4A" points="908.1,918 871.8,918 851.2,943 887.5,943 		"/>
		<polygon fill="#2D3A4A" points="1338,352.3 1338,396.3 1363,366 1363,321.9 		"/>
		<polygon fill="#2D3A4A" points="1338,489.3 1338,533.3 1363,503 1363,458.9 		"/>
		<polygon fill="#2D3A4A" points="1021,918 984.7,918 964.1,943 1000.4,943 		"/>
		<polygon fill="#2D3A4A" points="1338,626.2 1338,670.3 1363,639.9 1363,595.9 		"/>
		<polygon fill="#2D3A4A" points="1133.9,918 1097.6,918 1077,943 1113.3,943 		"/>
		<polygon fill="#2D3A4A" points="1338,763.2 1338,807.2 1363,776.9 1363,732.9 		"/>
		<polygon fill="#2D3A4A" points="1246.7,918 1210.4,918 1189.8,943 1226.1,943 		"/>
		<path fill="#2D3A4A" d="M1363,913.9v-44l-25,30.3V914c0,2.2-1.8,4-4,4h-10.7l-20.6,25h36.3L1363,913.9z"/>
		<path fill="#F26422" d="M1371,33c0-2.2-1.8-4-4-4H33c-2.2,0-4,1.8-4,4v914c0,2.2,1.8,4,4,4h1334c2.2,0,4-1.8,4-4V33z M37,891.9
			l25-30.3V914c0,2.2,1.8,4,4,4h5.4l-20.6,25H37V891.9z M37,57.5V37h16.9L37,57.5z M64.3,37h55.8L99.5,62H66c-2.2,0-4,1.8-4,4v41.5
			l-25,30.3V70.1L64.3,37z M70,70h1260v840H70V70z M1338,887.6v-67.8l25-30.3v67.8L1338,887.6z M1338,807.2v-44l25-30.3v44
			L1338,807.2z M1338,750.6v-67.8l25-30.3v67.8L1338,750.6z M1338,670.3v-44l25-30.3v44L1338,670.3z M1338,613.6v-67.8l25-30.3v67.8
			L1338,613.6z M1338,533.3v-44l25-30.3v44L1338,533.3z M1338,476.7v-67.8l25-30.3v67.8L1338,476.7z M1338,396.3v-44l25-30.3v44
			L1338,396.3z M1338,339.7v-67.8l25-30.3v67.8L1338,339.7z M1338,259.4v-44l25-30.3v44L1338,259.4z M1338,202.7V135l25-30.3v67.8
			L1338,202.7z M1338,122.4v-44l25-30.3v44L1338,122.4z M1338,65.8c-0.1-2.1-1.8-3.8-4-3.8h-48.7l20.6-25h55.8L1338,65.8z
			 M1274.9,62h-36.3l20.6-25h36.3L1274.9,62z M1228.2,62h-55.8l20.6-25h55.8L1228.2,62z M1162,62h-36.3l20.6-25h36.3L1162,62z
			 M1115.4,62h-55.8l20.6-25h55.8L1115.4,62z M1049.2,62h-36.3l20.6-25h36.3L1049.2,62z M1002.5,62h-55.8l20.6-25h55.8L1002.5,62z
			 M936.3,62H900l20.6-25h36.3L936.3,62z M889.6,62h-55.8l20.6-25h55.8L889.6,62z M823.4,62h-36.3l20.6-25H844L823.4,62z M776.7,62
			h-55.8l20.6-25h55.8L776.7,62z M710.5,62h-36.3l20.6-25h36.3L710.5,62z M663.9,62H608l20.6-25h55.8L663.9,62z M597.7,62h-36.3
			L582,37h36.3L597.7,62z M551,62h-55.8l20.6-25h55.8L551,62z M484.8,62h-36.3l20.6-25h36.3L484.8,62z M438.1,62h-55.8l20.6-25h55.8
			L438.1,62z M371.9,62h-36.3l20.6-25h36.3L371.9,62z M325.3,62h-55.8L290,37h55.8L325.3,62z M259.1,62h-36.3l20.6-25h36.3L259.1,62
			z M212.4,62h-55.8l20.6-25H233L212.4,62z M146.2,62h-36.3l20.6-25h36.3L146.2,62z M62,120.1v44l-25,30.3v-44L62,120.1z M62,176.7
			v67.8l-25,30.3v-67.8L62,176.7z M62,257.1v44l-25,30.3v-44L62,257.1z M62,313.7v67.8l-25,30.3V344L62,313.7z M62,394v44l-25,30.3
			v-44L62,394z M62,450.7v67.8l-25,30.3V481L62,450.7z M62,531v44l-25,30.3v-44L62,531z M62,587.6v67.8l-25,30.3V618L62,587.6z
			 M62,668v44l-25,30.3v-44L62,668z M62,724.6v67.8l-25,30.3V755L62,724.6z M62,805v44l-25,30.3v-44L62,805z M81.7,918H118l-20.6,25
			H61.1L81.7,918z M128.4,918h55.8l-20.6,25h-55.8L128.4,918z M194.6,918h36.3l-20.6,25H174L194.6,918z M241.3,918h55.8l-20.6,25
			h-55.8L241.3,918z M307.5,918h36.3l-20.6,25h-36.3L307.5,918z M354.1,918H410l-20.6,25h-55.8L354.1,918z M420.3,918h36.3L436,943
			h-36.3L420.3,918z M467,918h55.8l-20.6,25h-55.8L467,918z M533.2,918h36.3l-20.6,25h-36.3L533.2,918z M579.9,918h55.8l-20.6,25
			h-55.8L579.9,918z M646.1,918h36.3l-20.6,25h-36.3L646.1,918z M692.7,918h55.8L728,943h-55.8L692.7,918z M758.9,918h36.3l-20.6,25
			h-36.3L758.9,918z M805.6,918h55.8l-20.6,25H785L805.6,918z M871.8,918h36.3l-20.6,25h-36.3L871.8,918z M918.5,918h55.8l-20.6,25
			h-55.8L918.5,918z M984.7,918h36.3l-20.6,25h-36.3L984.7,918z M1031.4,918h55.8l-20.6,25h-55.8L1031.4,918z M1097.6,918h36.3
			l-20.6,25H1077L1097.6,918z M1144.2,918h55.8l-20.6,25h-55.8L1144.2,918z M1210.4,918h36.3l-20.6,25h-36.3L1210.4,918z
			 M1257.1,918h55.8l-20.6,25h-55.8L1257.1,918z M1323.3,918h10.7c2.2,0,4-1.8,4-4v-13.8l25-30.3v44l-24,29.1h-36.3L1323.3,918z
			 M1363,926.5V943h-13.6L1363,926.5z"/>
	</g>
	<g>
		<path fill="#2D3A4A" d="M481.4,692.9h30h10.7h30h10.7h30h10.7h30h10.7h30H685h30h10.7h30h10.7h30h10.7h30h10.7h30h10.7h30h10.7
			h8.1c8.7,0,15.8-7.1,15.8-15.8V355.3c0-8.7-7.1-15.8-15.8-15.8H765.8v16.8h166.7c2.2,0,4,1.8,4,4v311.9c0,2.2-1.8,4-4,4h-465
			c-2.2,0-4-1.8-4-4V458.9c0,0,0,0,0,0v-41.7c0,0,0,0,0,0v-56.9c0-2.2,1.8-4,4-4h290.3v-16.8H462.6c-8.7,0-15.8,7.1-15.8,15.8v321.7
			c0,8.7,7.1,15.8,15.8,15.8h8.1H481.4z"/>
		<rect x="755.7" y="411" fill="#FED928" width="12.3" height="12.3"/>
		<path fill="#2D3A4A" d="M444.5,731.9c4.8,0,8.7,3.9,8.7,8.7v2.7c0,0.2,0,0.5,0,0.7h493.8c0-0.2,0-0.5,0-0.7v-2.7
			c0-4.8,3.9-8.7,8.7-8.7H969v-15c0-1.6-1.3-3-3-3h-1.4H924h-40.7h-40.7h-40.7h-15.6v10.8c0,3.6-3,6.6-6.6,6.6H620.4
			c-3.6,0-6.6-3-6.6-6.6V714h-15.6h-40.7h-40.7H476h-40.7h-1.4c-1.6,0-3,1.3-3,3v15H444.5z"/>
		<polygon fill="#2D3A4A" points="778.2,714 761.1,714 720.4,714 679.6,714 638.9,714 621.8,714 621.8,723.4 778.2,723.4 		"/>
		<path fill="#2D3A4A" d="M472,702.3c0-0.8-0.6-1.4-1.4-1.4h-8.1h-21.9c-0.8,0-1.4,0.6-1.4,1.4v3.7H472V702.3z"/>
		<path fill="#2D3A4A" d="M512.8,702.3c0-0.8-0.6-1.4-1.4-1.4h-30c-0.8,0-1.4,0.6-1.4,1.4v3.7h32.7V702.3z"/>
		<path fill="#2D3A4A" d="M553.5,702.3c0-0.8-0.6-1.4-1.4-1.4h-30c-0.8,0-1.4,0.6-1.4,1.4v3.7h32.7V702.3z"/>
		<path fill="#2D3A4A" d="M594.2,702.3c0-0.8-0.6-1.4-1.4-1.4h-30c-0.8,0-1.4,0.6-1.4,1.4v3.7h32.7V702.3z"/>
		<path fill="#2D3A4A" d="M634.9,706v-3.7c0-0.8-0.6-1.4-1.4-1.4h-30c-0.8,0-1.4,0.6-1.4,1.4v3.7h18.2H634.9z"/>
		<path fill="#2D3A4A" d="M642.9,702.3v3.7h32.7v-3.7c0-0.8-0.6-1.4-1.4-1.4h-30C643.5,700.9,642.9,701.5,642.9,702.3z"/>
		<path fill="#2D3A4A" d="M683.6,702.3v3.7h32.7v-3.7c0-0.8-0.6-1.4-1.4-1.4h-30C684.3,700.9,683.6,701.5,683.6,702.3z"/>
		<path fill="#2D3A4A" d="M724.4,702.3v3.7h32.7v-3.7c0-0.8-0.6-1.4-1.4-1.4h-30C725,700.9,724.4,701.5,724.4,702.3z"/>
		<path fill="#2D3A4A" d="M797.8,702.3c0-0.8-0.6-1.4-1.4-1.4h-30c-0.8,0-1.4,0.6-1.4,1.4v3.7h14.5h18.2V702.3z"/>
		<path fill="#2D3A4A" d="M838.5,702.3c0-0.8-0.6-1.4-1.4-1.4h-30c-0.8,0-1.4,0.6-1.4,1.4v3.7h32.7V702.3z"/>
		<path fill="#2D3A4A" d="M879.2,702.3c0-0.8-0.6-1.4-1.4-1.4h-30c-0.8,0-1.4,0.6-1.4,1.4v3.7h32.7V702.3z"/>
		<path fill="#2D3A4A" d="M920,702.3c0-0.8-0.6-1.4-1.4-1.4h-30c-0.8,0-1.4,0.6-1.4,1.4v3.7H920V702.3z"/>
		<path fill="#2D3A4A" d="M959.3,700.9h-21.9h-8.1c-0.8,0-1.4,0.6-1.4,1.4v3.7h32.7v-3.7C960.7,701.5,960.1,700.9,959.3,700.9z"/>
		<path fill="#F26422" d="M525.9,394.9l-15.5,15.5c-1.6,1.6-1.6,4.1,0,5.7c0.8,0.8,1.8,1.2,2.8,1.2s2-0.4,2.8-1.2l15.5-15.5
			c1.6-1.6,1.6-4.1,0-5.7C530,393.3,527.4,393.3,525.9,394.9z"/>
		<path fill="#F26422" d="M1249.1,704.1h-12.6v-51.6c0,0,0,0,0,0v-94.1c0,0,0,0,0,0v-94.1c0,0,0,0,0,0v-94.1c0,0,0,0,0,0V276
			c0,0,0,0,0,0v-94.1c0,0,0,0,0,0V87.7c0-0.3,0-0.5-0.1-0.8c0-0.1-0.1-0.2-0.1-0.3c0-0.1-0.1-0.3-0.1-0.4c-0.1-0.1-0.1-0.2-0.2-0.4
			c-0.1-0.1-0.1-0.2-0.2-0.3c-0.1-0.2-0.3-0.4-0.5-0.6c0,0,0,0,0-0.1c0,0,0,0-0.1,0c-0.2-0.2-0.4-0.3-0.6-0.5
			c-0.1-0.1-0.2-0.1-0.3-0.2c-0.1-0.1-0.2-0.1-0.4-0.2c-0.1-0.1-0.3-0.1-0.4-0.1c-0.1,0-0.2-0.1-0.3-0.1c-0.2,0-0.5-0.1-0.7-0.1
			c0,0,0,0,0,0h-94.1c0,0,0,0,0,0c-0.2,0-0.5,0-0.7,0.1c-0.1,0-0.2,0.1-0.3,0.1c-0.1,0-0.3,0.1-0.4,0.1c-0.1,0.1-0.3,0.1-0.4,0.2
			c-0.1,0.1-0.2,0.1-0.3,0.2c-0.2,0.1-0.4,0.3-0.6,0.5c0,0,0,0-0.1,0c0,0,0,0,0,0.1c-0.2,0.2-0.3,0.4-0.5,0.6
			c-0.1,0.1-0.1,0.2-0.2,0.3c-0.1,0.1-0.1,0.2-0.2,0.4c-0.1,0.1-0.1,0.3-0.1,0.4c0,0.1-0.1,0.2-0.1,0.3c-0.1,0.3-0.1,0.5-0.1,0.8
			v90.1h-90.1h-94.1H856c0,0,0,0,0,0c0,0,0,0,0,0c-0.2,0-0.4,0-0.6,0.1c0,0,0,0,0,0c0,0,0,0,0,0c0,0-0.1,0-0.1,0
			c-0.2,0-0.4,0.1-0.6,0.2c0,0-0.1,0-0.1,0c0,0-0.1,0-0.1,0.1c-0.1,0.1-0.3,0.1-0.4,0.2c0,0-0.1,0-0.1,0.1c0,0,0,0-0.1,0.1
			c-0.2,0.1-0.4,0.3-0.5,0.4L759,273.1c-0.2,0.2-0.3,0.3-0.4,0.5c0,0.1-0.1,0.1-0.1,0.2c-0.1,0.1-0.2,0.3-0.2,0.4
			c0,0.1-0.1,0.1-0.1,0.2c-0.1,0.2-0.1,0.4-0.2,0.6c0,0,0,0.1,0,0.1c0,0.2-0.1,0.5-0.1,0.7c0,0,0,0.1,0,0.1v55.5H462.6
			c-13.1,0-23.8,10.7-23.8,23.8v321.7c0,6.1,2.3,11.6,6,15.8h-4.1c-5.2,0-9.4,4.2-9.4,9.4v4.1c-2.6,0.6-4.8,2.2-6.3,4.2l-32.3-116.6
			c0,0,0,0,0,0l-3.5-12.6l-11-39.6c-1.7-6.3-7.3-10.5-13.8-10.5c-6.5,0-12.1,4.2-13.8,10.5l-7.2,26.2c0,0,0,0,0,0l-7.2,26v0
			L324.7,636l-4.9,17.6c0,0,0,0,0,0l-21.6,78.3h-13.5c-4.8,0-8.7,3.9-8.7,8.7v2.7c0,4.8,3.9,8.7,8.7,8.7h149.3h10.5h511.1h10.5
			h149.3c1.7,0,3.3-0.5,4.7-1.4h18.3h94.1h44.6c2.2,0,4-1.8,4-4v-10.5C1281.1,718.5,1266.8,704.1,1249.1,704.1z M284.6,744
			c-0.4,0-0.7-0.3-0.7-0.7v-2.7c0-0.4,0.3-0.7,0.7-0.7h16.6h126.7h16.6c0.4,0,0.7,0.3,0.7,0.7v2.7c0,0.4-0.3,0.7-0.7,0.7h-10.5
			H284.6z M364.5,539.2c2.3,0,5.1,1.2,6.1,4.6l5.8,21.1h-23.9l5.8-21.1C359.4,540.4,362.2,539.2,364.5,539.2z M439.3,702.3
			c0-0.8,0.6-1.4,1.4-1.4h21.9h8.1c0.8,0,1.4,0.6,1.4,1.4v3.7h-32.7V702.3z M446.7,677.1V355.3c0-8.7,7.1-15.8,15.8-15.8h295.3v16.8
			H467.5c-2.2,0-4,1.8-4,4v56.9c0,0,0,0,0,0v41.7c0,0,0,0,0,0v213.2c0,2.2,1.8,4,4,4h465c2.2,0,4-1.8,4-4V360.3c0-2.2-1.8-4-4-4
			H765.8v-16.8h171.6c8.7,0,15.8,7.1,15.8,15.8v321.7c0,8.7-7.1,15.8-15.8,15.8h-8.1h-10.7h-30h-10.7h-30h-10.7h-30h-10.7h-30h-10.7
			h-30H715h-30h-10.7h-30h-10.7h-30h-10.7h-30h-10.7h-30h-10.7h-30h-10.7h-8.1C453.8,692.9,446.7,685.8,446.7,677.1z M768,411v12.3
			h-12.3V411H768z M751.7,403c-2.2,0-4,1.8-4,4v20.3c0,2.2,1.8,4,4,4H772c2.2,0,4-1.8,4-4V407c0-2.2-1.8-4-4-4h-6.2v-38.8h162.7
			v303.9h-457V460.6l30-30c1.6-1.6,1.6-4.1,0-5.7c-1.6-1.6-4.1-1.6-5.7,0l-24.4,24.4v-30.4l26.7-26.7c1.6-1.6,1.6-4.1,0-5.7
			c-1.6-1.6-4.1-1.6-5.7,0l-21,21v-43.3h43.3L501,378c-1.6,1.6-1.6,4.1,0,5.7c0.8,0.8,1.8,1.2,2.8,1.2s2-0.4,2.8-1.2l17.6-17.6
			c0.5-0.5,0.9-1.2,1-1.8h31.2l-14.6,14.6c-1.6,1.6-1.6,4.1,0,5.7c0.8,0.8,1.8,1.2,2.8,1.2c1,0,2-0.4,2.8-1.2l19.9-19.9
			c0.1-0.1,0.2-0.3,0.3-0.4h190.1V403H751.7z M966.1,744h-10.5c-0.4,0-0.7-0.3-0.7-0.7v-2.7c0-0.4,0.3-0.7,0.7-0.7h16.6h126.7h16.6
			c0.4,0,0.7,0.3,0.7,0.7v2.7c0,0.4-0.3,0.7-0.7,0.7H966.1z M1016.3,591l5-18h28.3l5,18H1016.3z M1023.5,565l5.8-21.1
			c0.9-3.4,3.8-4.6,6.1-4.6c2.3,0,5.1,1.2,6.1,4.6l5.8,21.1H1023.5z M1014.1,599h42.7l7.1,25.7H1007L1014.1,599z M1071.1,650.7
			h-71.3l5-18h61.3L1071.1,650.7z M997.6,658.7h75.7l7.1,25.7h-89.9L997.6,658.7z M1093.6,731.9H977.4l3.7-13.5h108.7L1093.6,731.9z
			 M1087.6,710.5H983.3l5-18h94.3L1087.6,710.5z M960.7,706H928v-3.7c0-0.8,0.6-1.4,1.4-1.4h8.1h21.9c0.8,0,1.4,0.6,1.4,1.4V706z
			 M779.6,706h-14.5v-3.7c0-0.8,0.6-1.4,1.4-1.4h30c0.8,0,1.4,0.6,1.4,1.4v3.7H779.6z M480,702.3c0-0.8,0.6-1.4,1.4-1.4h30
			c0.8,0,1.4,0.6,1.4,1.4v3.7H480V702.3z M520.8,702.3c0-0.8,0.6-1.4,1.4-1.4h30c0.8,0,1.4,0.6,1.4,1.4v3.7h-32.7V702.3z
			 M561.5,702.3c0-0.8,0.6-1.4,1.4-1.4h30c0.8,0,1.4,0.6,1.4,1.4v3.7h-32.7V702.3z M602.2,702.3c0-0.8,0.6-1.4,1.4-1.4h30
			c0.8,0,1.4,0.6,1.4,1.4v3.7h-14.5h-18.2V702.3z M757.1,702.3v3.7h-32.7v-3.7c0-0.8,0.6-1.4,1.4-1.4h30
			C756.5,700.9,757.1,701.5,757.1,702.3z M716.4,702.3v3.7h-32.7v-3.7c0-0.8,0.6-1.4,1.4-1.4h30
			C715.7,700.9,716.4,701.5,716.4,702.3z M675.6,702.3v3.7h-32.7v-3.7c0-0.8,0.6-1.4,1.4-1.4h30C675,700.9,675.6,701.5,675.6,702.3z
			 M621.8,714h17.1h40.7h40.7h40.7h17.1v9.4H621.8V714z M805.8,702.3c0-0.8,0.6-1.4,1.4-1.4h30c0.8,0,1.4,0.6,1.4,1.4v3.7h-32.7
			V702.3z M846.5,702.3c0-0.8,0.6-1.4,1.4-1.4h30c0.8,0,1.4,0.6,1.4,1.4v3.7h-32.7V702.3z M887.2,702.3c0-0.8,0.6-1.4,1.4-1.4h30
			c0.8,0,1.4,0.6,1.4,1.4v3.7h-32.7V702.3z M433.9,714h1.4H476h40.7h40.7h40.7h15.6v10.8c0,3.6,3,6.6,6.6,6.6h159.2
			c3.6,0,6.6-3,6.6-6.6V714h15.6h40.7h40.7H924h40.7h1.4c1.6,0,3,1.3,3,3v15h-13.5c-4.8,0-8.7,3.9-8.7,8.7v2.7c0,0.2,0,0.5,0,0.7
			H453.1c0-0.2,0-0.5,0-0.7v-2.7c0-4.8-3.9-8.7-8.7-8.7H431v-15C431,715.3,432.3,714,433.9,714z M326.7,658.7h75.7l7.1,25.7h-89.9
			L326.7,658.7z M328.9,650.7l5-18h61.3l5,18H328.9z M345.4,591l5-18h28.3l5,18H345.4z M343.2,599h42.7l7.1,25.7h-56.9L343.2,599z
			 M317.4,692.4h94.3l5,18H312.4L317.4,692.4z M310.2,718.5h108.7l3.7,13.5H306.4L310.2,718.5z M1115.4,731.9h-13.5l-1.6-5.7
			c3.8-8.3,12.2-14.1,21.9-14.1h12.2v30.5h-10.3v-2C1124.1,735.8,1120.2,731.9,1115.4,731.9z M1191.1,605.4l37.4-37.4v74.8
			L1191.1,605.4z M1222.9,648.5H1148l37.4-37.4L1222.9,648.5z M1222.9,562.4l-37.4,37.4l-37.4-37.4H1222.9z M1148,554.4l37.4-37.4
			l37.4,37.4H1148z M1191.1,511.3l37.4-37.4v74.8L1191.1,511.3z M1222.9,468.2l-37.4,37.4l-37.4-37.4H1222.9z M1148,460.2l37.4-37.4
			l37.4,37.4H1148z M1191.1,417.2l37.4-37.4v74.8L1191.1,417.2z M1222.9,374.1l-37.4,37.4l-37.4-37.4H1222.9z M1148,366.1l37.4-37.4
			l37.4,37.4H1148z M1191.1,323l37.4-37.4v74.8L1191.1,323z M1179.8,228.9l-37.4,37.4v-74.8L1179.8,228.9z M1148,185.8h74.8
			l-37.4,37.4L1148,185.8z M1185.5,234.6l37.4,37.4H1148L1185.5,234.6z M1222.9,280l-37.4,37.4L1148,280H1222.9z M1191.1,228.9
			l37.4-37.4v74.8L1191.1,228.9z M1148,177.8l37.4-37.4l37.4,37.4H1148z M1134.4,266.3l-37.4-37.4l37.4-37.4V266.3z M1179.8,323
			l-37.4,37.4v-74.8L1179.8,323z M1179.8,417.2l-37.4,37.4v-74.8L1179.8,417.2z M1179.8,511.3l-37.4,37.4v-74.8L1179.8,511.3z
			 M1179.8,605.4l-37.4,37.4V568L1179.8,605.4z M1222.9,656.5l-37.4,37.4l-37.4-37.4H1222.9z M1228.5,172.2l-37.4-37.4l37.4-37.4
			V172.2z M1185.5,129.1L1148,91.7h74.8L1185.5,129.1z M1179.8,134.8l-37.4,37.4V97.3L1179.8,134.8z M1091.3,223.2l-37.4-37.4h74.8
			L1091.3,223.2z M1085.7,228.9l-37.4,37.4v-74.8L1085.7,228.9z M1002.8,228.9l37.4-37.4v74.8L1002.8,228.9z M997.2,223.2
			l-37.4-37.4h74.8L997.2,223.2z M908.7,228.9l37.4-37.4v74.8L908.7,228.9z M991.5,228.9l-37.4,37.4v-74.8L991.5,228.9z M903,223.2
			l-37.4-37.4h74.8L903,223.2z M897.4,228.9L860,266.3v-74.8L897.4,228.9z M852,266.3l-37.4-37.4l37.4-37.4V266.3z M903,234.6
			l37.4,37.4h-74.8L903,234.6z M997.2,234.6l37.4,37.4h-74.8L997.2,234.6z M1091.3,234.6l37.4,37.4h-74.8L1091.3,234.6z
			 M1142.4,662.2l37.4,37.4l-4.6,4.6h-32.9V662.2z M1167.2,712.1l-24.9,24.9v-24.9H1167.2z M1178.6,712.1h13.8l30.5,30.5H1148
			L1178.6,712.1z M1203.7,712.1h24.9V737L1203.7,712.1z M1195.7,704.1l-4.6-4.6l37.4-37.4v42H1195.7z M808.9,234.6l37.4,37.4h-74.8
			L808.9,234.6z M765.8,280H856h94.1h94.1h90.1v90.1c0,0,0,0,0,0v94.1c0,0,0,0,0,0v94.1c0,0,0,0,0,0v94.1c0,0,0,0,0,0v51.6h-12.2
			c-10,0-18.9,4.6-24.8,11.7l-17.2-62.2c0,0,0,0,0,0l-4.9-17.6l-11.6-42.1v0l-7.2-26c0,0,0,0,0,0l-7.2-26.2
			c-1.7-6.3-7.3-10.5-13.8-10.5c-6.5,0-12.1,4.2-13.8,10.5L975,710.6c-1.5-2.1-3.7-3.6-6.3-4.2v-4.1c0-5.2-4.2-9.4-9.4-9.4h-4.1
			c3.8-4.2,6-9.8,6-15.8V355.3c0-13.1-10.7-23.8-23.8-23.8H765.8V280z M1273.1,742.6h-36.6v-30.5h12.6c13.3,0,24,10.8,24,24V742.6z"
			/>
		<polygon fill="#F06A22" points="981.1,718.5 977.4,731.9 1093.6,731.9 1089.8,718.5 		"/>
		<polygon fill="#F06A22" points="1063.9,624.7 1056.8,599 1014.1,599 1007,624.7 		"/>
		<path fill="#F06A22" d="M1035.5,539.2c-2.3,0-5.1,1.2-6.1,4.6l-5.8,21.1h23.9l-5.8-21.1C1040.6,540.4,1037.8,539.2,1035.5,539.2z"
			/>
		<polygon fill="#F06A22" points="1080.4,684.4 1073.3,658.7 997.6,658.7 990.5,684.4 		"/>
		<path fill="#F06A22" d="M1116.1,743.3v-2.7c0-0.4-0.3-0.7-0.7-0.7h-16.6H972.1h-16.6c-0.4,0-0.7,0.3-0.7,0.7v2.7
			c0,0.4,0.3,0.7,0.7,0.7h10.5h149.3C1115.8,744,1116.1,743.7,1116.1,743.3z"/>
		<polygon fill="#F8F8F9" points="1021.3,573 1016.3,591 1054.6,591 1049.6,573 		"/>
		<polygon fill="#F8F8F9" points="999.8,650.7 1071.1,650.7 1066.1,632.7 1004.8,632.7 		"/>
		<polygon fill="#F8F8F9" points="983.3,710.5 1087.6,710.5 1082.6,692.4 988.3,692.4 		"/>
		<path fill="#F06A22" d="M376.5,565l-5.8-21.1c-0.9-3.4-3.8-4.6-6.1-4.6c-2.3,0-5.1,1.2-6.1,4.6l-5.8,21.1H376.5z"/>
		<polygon fill="#F06A22" points="409.5,684.4 402.4,658.7 326.7,658.7 319.6,684.4 		"/>
		<polygon fill="#F06A22" points="393,624.7 385.9,599 343.2,599 336.1,624.7 		"/>
		<polygon fill="#F06A22" points="418.9,718.5 310.2,718.5 306.4,731.9 422.6,731.9 		"/>
		<path fill="#F06A22" d="M444.5,744c0.4,0,0.7-0.3,0.7-0.7v-2.7c0-0.4-0.3-0.7-0.7-0.7h-16.6H301.2h-16.6c-0.4,0-0.7,0.3-0.7,0.7
			v2.7c0,0.4,0.3,0.7,0.7,0.7h149.3H444.5z"/>
		<polygon fill="#F8F8F9" points="378.7,573 350.4,573 345.4,591 383.7,591 		"/>
		<polygon fill="#F8F8F9" points="395.2,632.7 333.9,632.7 328.9,650.7 400.2,650.7 		"/>
		<polygon fill="#F8F8F9" points="411.7,692.4 317.4,692.4 312.4,710.5 416.7,710.5 		"/>
		<path fill="#19BAB0" d="M110.3,674.5c0,18.4,13.9,33.5,31.8,35.5v-5.6c-14.8-2-26.2-14.7-26.2-30c0-15.3,11.5-28,26.2-30V639
			C124.2,641,110.3,656.1,110.3,674.5z"/>
		<path fill="#19BAB0" d="M191.1,679c0,6,4.9,11,11,11c6,0,11-4.9,11-11c0-6-4.9-11-11-11C196,668,191.1,672.9,191.1,679z"/>
		<path fill="#19BAB0" d="M150.1,744H254V613.9H150.1V744z M183.4,642.8l5.7,5l0.5-7.6c0.1-2.1,1.9-3.8,4-3.8h16.9
			c2.1,0,3.9,1.6,4,3.8l0.5,7.6l5.7-5c1.6-1.4,4-1.3,5.5,0.2l12,12c1.5,1.5,1.6,3.9,0.2,5.5l-5,5.7l7.6,0.5c2.1,0.1,3.8,1.9,3.8,4
			v16.9c0,2.1-1.6,3.9-3.8,4l-7.6,0.5l5,5.7c1.4,1.6,1.3,4-0.2,5.5l-12,12c-1.5,1.5-3.9,1.6-5.5,0.2l-5.7-5l-0.5,7.6
			c-0.1,2.1-1.9,3.8-4,3.8h-16.9c-2.1,0-3.9-1.6-4-3.8l-0.5-7.6l-5.7,5c-1.6,1.4-4,1.3-5.5-0.2l-12-12c-1.5-1.5-1.6-3.9-0.2-5.5
			l5-5.7l-7.6-0.5c-2.1-0.1-3.8-1.9-3.8-4v-16.9c0-2.1,1.6-3.9,3.8-4l7.6-0.5l-5-5.7c-1.4-1.6-1.3-4,0.2-5.5l12-12
			C179.5,641.4,181.9,641.4,183.4,642.8z"/>
		<path fill="#F26422" d="M258,605.9H146.1c-2.2,0-4,1.8-4,4v21c-22.3,2-39.8,20.8-39.8,43.6c0,22.8,17.5,41.5,39.8,43.6V748
			c0,2.2,1.8,4,4,4H258c2.2,0,4-1.8,4-4V609.9C262,607.7,260.2,605.9,258,605.9z M254,744H150.1V613.9H254V744z M142.1,652.6v43.8
			c-10.4-1.9-18.2-11-18.2-21.9C123.8,663.6,131.7,654.5,142.1,652.6z M142.1,644.5c-14.8,2-26.2,14.7-26.2,30
			c0,15.3,11.5,28,26.2,30v5.6c-17.8-2-31.8-17.2-31.8-35.5c0-18.4,13.9-33.5,31.8-35.5V644.5z"/>
		<path fill="#F8F8F9" d="M181,651.3l-6.6,6.6l8,9c1,1.1,1.3,2.8,0.7,4.2c-0.6,1.4-1.9,2.4-3.5,2.5l-12,0.7v9.4l12,0.7
			c1.5,0.1,2.9,1,3.5,2.5c0.6,1.4,0.3,3-0.7,4.2l-8,9l6.6,6.6l9-8c1.1-1,2.8-1.3,4.2-0.7c1.4,0.6,2.4,1.9,2.5,3.5l0.7,12h9.4l0.7-12
			c0.1-1.5,1-2.9,2.5-3.5c1.4-0.6,3-0.3,4.2,0.7l9,8l6.6-6.6l-8-9c-1-1.1-1.3-2.8-0.7-4.2c0.6-1.4,1.9-2.4,3.5-2.5l12-0.7v-9.4
			l-12-0.7c-1.5-0.1-2.9-1-3.5-2.5c-0.6-1.4-0.3-3,0.7-4.2l8-9l-6.6-6.6l-9,8c-1.1,1-2.8,1.3-4.2,0.7c-1.4-0.6-2.4-1.9-2.5-3.5
			l-0.7-12h-9.4l-0.7,12c-0.1,1.5-1,2.9-2.5,3.5c-1.4,0.6-3,0.3-4.2-0.7L181,651.3z M202,660c10.5,0,19,8.5,19,19
			c0,10.5-8.5,19-19,19c-10.5,0-19-8.5-19-19C183.1,668.5,191.6,660,202,660z"/>
		<path fill="#F26422" d="M166,654.9c-1.5,1.5-1.6,3.9-0.2,5.5l5,5.7l-7.6,0.5c-2.1,0.1-3.8,1.9-3.8,4v16.9c0,2.1,1.6,3.9,3.8,4
			l7.6,0.5l-5,5.7c-1.4,1.6-1.3,4,0.2,5.5l12,12c1.5,1.5,3.9,1.6,5.5,0.2l5.7-5l0.5,7.6c0.1,2.1,1.9,3.8,4,3.8h16.9
			c2.1,0,3.9-1.6,4-3.8l0.5-7.6l5.7,5c1.6,1.4,4,1.3,5.5-0.2l12-12c1.5-1.5,1.6-3.9,0.2-5.5l-5-5.7l7.6-0.5c2.1-0.1,3.8-1.9,3.8-4
			v-16.9c0-2.1-1.6-3.9-3.8-4l-7.6-0.5l5-5.7c1.4-1.6,1.3-4-0.2-5.5l-12-12c-1.5-1.5-3.9-1.6-5.5-0.2l-5.7,5l-0.5-7.6
			c-0.1-2.1-1.9-3.8-4-3.8h-16.9c-2.1,0-3.9,1.6-4,3.8l-0.5,7.6l-5.7-5c-1.6-1.4-4-1.3-5.5,0.2L166,654.9z M194.1,659.9
			c1.4-0.6,2.4-1.9,2.5-3.5l0.7-12h9.4l0.7,12c0.1,1.5,1,2.9,2.5,3.5c1.4,0.6,3,0.3,4.2-0.7l9-8l6.6,6.6l-8,9
			c-1,1.1-1.3,2.8-0.7,4.2c0.6,1.4,1.9,2.4,3.5,2.5l12,0.7v9.4l-12,0.7c-1.5,0.1-2.9,1-3.5,2.5c-0.6,1.4-0.3,3,0.7,4.2l8,9l-6.6,6.6
			l-9-8c-1.1-1-2.8-1.3-4.2-0.7c-1.4,0.6-2.4,1.9-2.5,3.5l-0.7,12h-9.4l-0.7-12c-0.1-1.5-1-2.9-2.5-3.5c-1.4-0.6-3-0.3-4.2,0.7l-9,8
			l-6.6-6.6l8-9c1-1.1,1.3-2.8,0.7-4.2c-0.6-1.4-1.9-2.4-3.5-2.5l-12-0.7v-9.4l12-0.7c1.5-0.1,2.9-1,3.5-2.5c0.6-1.4,0.3-3-0.7-4.2
			l-8-9l6.6-6.6l9,8C191.1,660.3,192.7,660.5,194.1,659.9z"/>
		<path fill="#F26422" d="M183.1,679c0,10.5,8.5,19,19,19c10.5,0,19-8.5,19-19c0-10.5-8.5-19-19-19C191.6,660,183.1,668.5,183.1,679
			z M213,679c0,6-4.9,11-11,11c-6,0-11-4.9-11-11c0-6,4.9-11,11-11C208.1,668,213,672.9,213,679z"/>
	</g>
	<g>
		<g>
			<path fill="#F26422" d="M362.2,752H66c-2.2,0-4-1.8-4-4s1.8-4,4-4h296.2c2.2,0,4,1.8,4,4S364.4,752,362.2,752z"/>
		</g>
		<g>
			<path fill="#F26422" d="M601.9,752H409.1c-2.2,0-4-1.8-4-4s1.8-4,4-4h192.8c2.2,0,4,1.8,4,4S604.1,752,601.9,752z"/>
		</g>
		<g>
			<path fill="#F26422" d="M782.2,752H651.7c-2.2,0-4-1.8-4-4s1.8-4,4-4h130.5c2.2,0,4,1.8,4,4S784.4,752,782.2,752z"/>
		</g>
		<g>
			<path fill="#F26422" d="M1334,752H873.7c-2.2,0-4-1.8-4-4s1.8-4,4-4H1334c2.2,0,4,1.8,4,4S1336.2,752,1334,752z"/>
		</g>
		<g>
			<path fill="#F26422" d="M1331.7,810.6h-193.3c-2.2,0-4-1.8-4-4s1.8-4,4-4h193.3c2.2,0,4,1.8,4,4S1333.9,810.6,1331.7,810.6z"/>
		</g>
		<g>
			<path fill="#F26422" d="M1091.6,810.6H968.2c-2.2,0-4-1.8-4-4s1.8-4,4-4h123.4c2.2,0,4,1.8,4,4S1093.8,810.6,1091.6,810.6z"/>
		</g>
		<g>
			<path fill="#F26422" d="M253.2,810.6h-185c-2.2,0-4-1.8-4-4s1.8-4,4-4h185c2.2,0,4,1.8,4,4S255.4,810.6,253.2,810.6z"/>
		</g>
		<g>
			<path fill="#F26422" d="M828.7,810.6h-61.5c-2.2,0-4-1.8-4-4s1.8-4,4-4h61.5c2.2,0,4,1.8,4,4S830.9,810.6,828.7,810.6z"/>
		</g>
		<g>
			<path fill="#F26422" d="M698.2,810.6h-126c-2.2,0-4-1.8-4-4s1.8-4,4-4h126c2.2,0,4,1.8,4,4S700.4,810.6,698.2,810.6z"/>
		</g>
		<g>
			<path fill="#F26422" d="M503.2,810.6H390.6c-2.2,0-4-1.8-4-4s1.8-4,4-4h112.6c2.2,0,4,1.8,4,4S505.4,810.6,503.2,810.6z"/>
		</g>
		<g>
			<path fill="#F26422" d="M1331.7,861h-81.6c-2.2,0-4-1.8-4-4s1.8-4,4-4h81.6c2.2,0,4,1.8,4,4S1333.9,861,1331.7,861z"/>
		</g>
		<g>
			<path fill="#F26422" d="M1226.2,861h-97.5c-2.2,0-4-1.8-4-4s1.8-4,4-4h97.5c2.2,0,4,1.8,4,4S1228.4,861,1226.2,861z"/>
		</g>
		<g>
			<path fill="#F26422" d="M1061.2,861H897.7c-2.2,0-4-1.8-4-4s1.8-4,4-4h163.5c2.2,0,4,1.8,4,4S1063.4,861,1061.2,861z"/>
		</g>
		<g>
			<path fill="#F26422" d="M828.7,861H692.2c-2.2,0-4-1.8-4-4s1.8-4,4-4h136.5c2.2,0,4,1.8,4,4S830.9,861,828.7,861z"/>
		</g>
		<g>
			<path fill="#F26422" d="M617.2,861h-186c-2.2,0-4-1.8-4-4s1.8-4,4-4h186c2.2,0,4,1.8,4,4S619.4,861,617.2,861z"/>
		</g>
		<g>
			<path fill="#F26422" d="M351.7,861h-66c-2.2,0-4-1.8-4-4s1.8-4,4-4h66c2.2,0,4,1.8,4,4S353.9,861,351.7,861z"/>
		</g>
		<g>
			<path fill="#F26422" d="M218.2,861h-150c-2.2,0-4-1.8-4-4s1.8-4,4-4h150c2.2,0,4,1.8,4,4S220.4,861,218.2,861z"/>
		</g>
		<g>
			<path fill="#F26422" d="M1138.4,544.8h-73.8c-2.2,0-4-1.8-4-4c0-2.2,1.8-4,4-4h73.8c2.2,0,4,1.8,4,4
				C1142.4,543,1140.6,544.8,1138.4,544.8z"/>
		</g>
		<g>
			<path fill="#F26422" d="M1331.7,544.8h-77.9c-2.2,0-4-1.8-4-4c0-2.2,1.8-4,4-4h77.9c2.2,0,4,1.8,4,4
				C1335.7,543,1333.9,544.8,1331.7,544.8z"/>
		</g>
		<g>
			<path fill="#F26422" d="M138,479.6H68.2c-2.2,0-4-1.8-4-4c0-2.2,1.8-4,4-4H138c2.2,0,4,1.8,4,4C142,477.8,140.2,479.6,138,479.6z
				"/>
		</g>
		<g>
			<path fill="#F26422" d="M1108,479.6h-57c-2.2,0-4-1.8-4-4c0-2.2,1.8-4,4-4h57c2.2,0,4,1.8,4,4
				C1112,477.8,1110.2,479.6,1108,479.6z"/>
		</g>
		<g>
			<path fill="#F26422" d="M1138.4,479.6H1124c-2.2,0-4-1.8-4-4c0-2.2,1.8-4,4-4h14.4c2.2,0,4,1.8,4,4
				C1142.4,477.8,1140.6,479.6,1138.4,479.6z"/>
		</g>
		<g>
			<path fill="#F26422" d="M1331.7,479.6h-37.7c-2.2,0-4-1.8-4-4c0-2.2,1.8-4,4-4h37.7c2.2,0,4,1.8,4,4
				C1335.7,477.8,1333.9,479.6,1331.7,479.6z"/>
		</g>
		<g>
			<path fill="#F26422" d="M1331.7,544.8h-37.7c-2.2,0-4-1.8-4-4c0-2.2,1.8-4,4-4h37.7c2.2,0,4,1.8,4,4
				C1335.7,543,1333.9,544.8,1331.7,544.8z"/>
		</g>
		<g>
			<path fill="#F26422" d="M1331.7,610h-37.7c-2.2,0-4-1.8-4-4s1.8-4,4-4h37.7c2.2,0,4,1.8,4,4S1333.9,610,1331.7,610z"/>
		</g>
		<g>
			<path fill="#F26422" d="M126.1,610H71.2c-2.2,0-4-1.8-4-4s1.8-4,4-4h54.9c2.2,0,4,1.8,4,4S128.3,610,126.1,610z"/>
		</g>
		<g>
			<path fill="#F26422" d="M1331.7,675.3h-37.7c-2.2,0-4-1.8-4-4c0-2.2,1.8-4,4-4h37.7c2.2,0,4,1.8,4,4
				C1335.7,673.5,1333.9,675.3,1331.7,675.3z"/>
		</g>
		<g>
			<path fill="#F26422" d="M168,414.4H68.2c-2.2,0-4-1.8-4-4c0-2.2,1.8-4,4-4H168c2.2,0,4,1.8,4,4C172,412.6,170.2,414.4,168,414.4z
				"/>
		</g>
		<g>
			<path fill="#F26422" d="M362.2,414.4H338c-2.2,0-4-1.8-4-4c0-2.2,1.8-4,4-4h24.2c2.2,0,4,1.8,4,4
				C366.2,412.6,364.4,414.4,362.2,414.4z"/>
		</g>
		<g>
			<path fill="#F26422" d="M1054,414.4h-38c-2.2,0-4-1.8-4-4c0-2.2,1.8-4,4-4h38c2.2,0,4,1.8,4,4
				C1058,412.6,1056.2,414.4,1054,414.4z"/>
		</g>
		<g>
			<path fill="#F26422" d="M1137.4,414.4H1091c-2.2,0-4-1.8-4-4c0-2.2,1.8-4,4-4h46.4c2.2,0,4,1.8,4,4
				C1141.4,412.6,1139.6,414.4,1137.4,414.4z"/>
		</g>
		<g>
			<path fill="#F26422" d="M1331.7,414.4h-42.3c-2.2,0-4-1.8-4-4c0-2.2,1.8-4,4-4h42.3c2.2,0,4,1.8,4,4
				C1335.7,412.6,1333.9,414.4,1331.7,414.4z"/>
		</g>
		<g>
			<path fill="#F26422" d="M279.9,349.2H68.2c-2.2,0-4-1.8-4-4s1.8-4,4-4h211.7c2.2,0,4,1.8,4,4S282.1,349.2,279.9,349.2z"/>
		</g>
		<g>
			<path fill="#F26422" d="M1331.7,349.2h-44.6c-2.2,0-4-1.8-4-4s1.8-4,4-4h44.6c2.2,0,4,1.8,4,4S1333.9,349.2,1331.7,349.2z"/>
		</g>
		<g>
			<path fill="#F26422" d="M154,284H68.2c-2.2,0-4-1.8-4-4c0-2.2,1.8-4,4-4H154c2.2,0,4,1.8,4,4C158,282.2,156.2,284,154,284z"/>
		</g>
		<g>
			<path fill="#F26422" d="M448,284H270c-2.2,0-4-1.8-4-4c0-2.2,1.8-4,4-4h178c2.2,0,4,1.8,4,4C452,282.2,450.2,284,448,284z"/>
		</g>
		<g>
			<path fill="#F26422" d="M604,284h-76c-2.2,0-4-1.8-4-4c0-2.2,1.8-4,4-4h76c2.2,0,4,1.8,4,4C608,282.2,606.2,284,604,284z"/>
		</g>
		<g>
			<path fill="#F26422" d="M679.6,284H650c-2.2,0-4-1.8-4-4c0-2.2,1.8-4,4-4h29.6c2.2,0,4,1.8,4,4C683.6,282.2,681.8,284,679.6,284z
				"/>
		</g>
		<g>
			<path fill="#F26422" d="M1331.7,284h-33c-2.2,0-4-1.8-4-4c0-2.2,1.8-4,4-4h33c2.2,0,4,1.8,4,4
				C1335.7,282.2,1333.9,284,1331.7,284z"/>
		</g>
		<g>
			<path fill="#F26422" d="M90,218.8H68.2c-2.2,0-4-1.8-4-4c0-2.2,1.8-4,4-4H90c2.2,0,4,1.8,4,4C94,217,92.2,218.8,90,218.8z"/>
		</g>
		<g>
			<path fill="#F26422" d="M622.7,218.8h-44.8c-2.2,0-4-1.8-4-4c0-2.2,1.8-4,4-4h44.8c2.2,0,4,1.8,4,4
				C626.7,217,624.9,218.8,622.7,218.8z"/>
		</g>
		<g>
			<path fill="#F26422" d="M730.7,218.8h-79.3c-2.2,0-4-1.8-4-4c0-2.2,1.8-4,4-4h79.3c2.2,0,4,1.8,4,4
				C734.7,217,732.9,218.8,730.7,218.8z"/>
		</g>
		<g>
			<path fill="#F26422" d="M823,218.8h-49.7c-2.2,0-4-1.8-4-4c0-2.2,1.8-4,4-4H823c2.2,0,4,1.8,4,4C827,217,825.2,218.8,823,218.8z"
				/>
		</g>
		<g>
			<path fill="#F26422" d="M1331.7,218.8h-64.7c-2.2,0-4-1.8-4-4c0-2.2,1.8-4,4-4h64.7c2.2,0,4,1.8,4,4
				C1335.7,217,1333.9,218.8,1331.7,218.8z"/>
		</g>
		<g>
			<path fill="#F26422" d="M704,153.6H577.8c-2.2,0-4-1.8-4-4s1.8-4,4-4H704c2.2,0,4,1.8,4,4S706.2,153.6,704,153.6z"/>
		</g>
		<g>
			<path fill="#F26422" d="M964,153.6H816c-2.2,0-4-1.8-4-4s1.8-4,4-4h148c2.2,0,4,1.8,4,4S966.2,153.6,964,153.6z"/>
		</g>
		<g>
			<path fill="#F26422" d="M1138.4,153.6H1038c-2.2,0-4-1.8-4-4s1.8-4,4-4h100.4c2.2,0,4,1.8,4,4S1140.6,153.6,1138.4,153.6z"/>
		</g>
		<g>
			<path fill="#F26422" d="M1331.7,153.6h-57c-2.2,0-4-1.8-4-4s1.8-4,4-4h57c2.2,0,4,1.8,4,4S1333.9,153.6,1331.7,153.6z"/>
		</g>
		<g>
			<path fill="#F26422" d="M1076.2,349.2h-88.5c-2.2,0-4-1.8-4-4s1.8-4,4-4h88.5c2.2,0,4,1.8,4,4S1078.4,349.2,1076.2,349.2z"/>
		</g>
		<g>
			<path fill="#F26422" d="M1138.4,349.2h-36.7c-2.2,0-4-1.8-4-4s1.8-4,4-4h36.7c2.2,0,4,1.8,4,4S1140.6,349.2,1138.4,349.2z"/>
		</g>
		<g>
			<path fill="#F26422" d="M445.9,349.2h-58.9c-2.2,0-4-1.8-4-4s1.8-4,4-4h58.9c2.2,0,4,1.8,4,4S448.1,349.2,445.9,349.2z"/>
		</g>
	</g>
	<g>
		<g>
			<text transform="matrix(1 0 0 1 516.9047 501.2139)" fill="#F26422" font-family="'Roboto-Black'" font-size="85.873px">WEBSITE</text>
		</g>
		<g>
			<text transform="matrix(1 0 0 1 516.4647 592.0401)" fill="#F26422" font-family="'Roboto-Black'" font-size="111.8754px">UNDER</text>
		</g>
		<g>
			<text transform="matrix(1 0 0 1 516.1283 636.7252)" fill="#F26422" font-family="'Roboto-Black'" font-size="47.5444px">CONSTRUCTION</text>
		</g>
	</g>
	<g>
		<g>
			<g>
				<path fill="#F26422" d="M576.2,268.9H104.1c-2.2,0-4-1.8-4-4v-166c0-2.2,1.8-4,4-4h472.2c2.2,0,4,1.8,4,4v166
					C580.2,267.1,578.5,268.9,576.2,268.9z M108.1,260.9h464.2v-158H108.1V260.9z"/>
			</g>
			<g>
				<path fill="#F26422" d="M554.2,232H126.1c-2.2,0-4-1.8-4-4V120.9c0-2.2,1.8-4,4-4h428.2c2.2,0,4,1.8,4,4V228
					C558.2,230.2,556.5,232,554.2,232z M130.1,224h420.2v-99.1H130.1V224z"/>
			</g>
			<g>
				<path fill="#F26422" d="M233.2,232H126.1c-2.2,0-4-1.8-4-4V120.9c0-2.2,1.8-4,4-4h107.1c2.2,0,4,1.8,4,4V228
					C237.2,230.2,235.4,232,233.2,232z M130.1,224h99.1v-99.1h-99.1V224z"/>
			</g>
			<g>
				<path fill="#F26422" d="M340.3,232H233.2c-2.2,0-4-1.8-4-4V120.9c0-2.2,1.8-4,4-4h107.1c2.2,0,4,1.8,4,4V228
					C344.3,230.2,342.5,232,340.3,232z M237.2,224h99.1v-99.1h-99.1V224z"/>
			</g>
			<g>
				<path fill="#F26422" d="M447.4,232H340.3c-2.2,0-4-1.8-4-4V120.9c0-2.2,1.8-4,4-4h107.1c2.2,0,4,1.8,4,4V228
					C451.4,230.2,449.7,232,447.4,232z M344.3,224h99.1v-99.1h-99.1V224z"/>
			</g>
			<g>
				<path fill="#F26422" d="M554.6,232H447.4c-2.2,0-4-1.8-4-4V120.9c0-2.2,1.8-4,4-4h107.1c2.2,0,4,1.8,4,4V228
					C558.6,230.2,556.8,232,554.6,232z M451.4,224h99.1v-99.1h-99.1V224z"/>
			</g>
		</g>
		<g>
			<text transform="matrix(1 0 0 1 143.8489 197.5366)" fill="#F26422" font-family="'Roboto-Black'" font-size="61.8015px">66</text>
		</g>
		<g>
			<text transform="matrix(1 0 0 1 158.6467 251.2978)" fill="#F26422" font-family="'Roboto-Medium'" font-size="19.6439px">days</text>
		</g>
		<g>
			<text transform="matrix(1 0 0 1 261.5632 251.2975)" fill="#F26422" font-family="'Roboto-Medium'" font-size="19.6439px">hours</text>
		</g>
		<g>
			<text transform="matrix(1 0 0 1 357.947 251.2975)" fill="#F26422" font-family="'Roboto-Medium'" font-size="19.6439px">minutes</text>
		</g>
		<g>
			<text transform="matrix(1 0 0 1 463.7451 251.2975)" fill="#F26422" font-family="'Roboto-Medium'" font-size="19.6439px">seconds</text>
		</g>
		<g>
			<text transform="matrix(1 0 0 1 248.8036 197.5364)" fill="#F26422" font-family="'Roboto-Black'" font-size="61.8015px">55</text>
		</g>
		<g>
			<text transform="matrix(1 0 0 1 356.656 197.5364)" fill="#F26422" font-family="'Roboto-Black'" font-size="61.8015px">44</text>
		</g>
		<g>
			<text transform="matrix(1 0 0 1 462.3943 197.5364)" fill="#F26422" font-family="'Roboto-Black'" font-size="61.8015px">33</text>
		</g>
	</g>
	<g>
		<path fill="#2D3A4A" d="M282.8,595.1c-0.8,0.8-1.8,1.2-2.8,1.2c-1.1,0-2.1-0.4-2.8-1.2l-3.7-3.7V744h13V591.4L282.8,595.1z"/>
		<path fill="#F9BB2D" d="M385.9,480.7l-106-106l-106,106l106,106L385.9,480.7z M282.8,568.6c-0.8,0.8-1.8,1.2-2.8,1.2
			c-1.1,0-2.1-0.4-2.8-1.2L192,483.5c-1.6-1.6-1.6-4.1,0-5.7l85.1-85.1c1.6-1.6,4.1-1.6,5.7,0l85.1,85.1c1.6,1.6,1.6,4.1,0,5.7
			L282.8,568.6z"/>
		<path fill="#F26422" d="M394.4,477.8L282.8,366.2c-1.6-1.6-4.1-1.6-5.7,0L165.5,477.8c-1.6,1.6-1.6,4.1,0,5.7l99.9,99.9V748
			c0,2.2,1.8,4,4,4h21c2.2,0,4-1.8,4-4V583.4l99.9-99.9C395.9,481.9,395.9,479.4,394.4,477.8z M273.4,744V591.4l3.7,3.7
			c0.8,0.8,1.8,1.2,2.8,1.2c1.1,0,2.1-0.4,2.8-1.2l3.7-3.7V744H273.4z M279.9,586.6l-106-106l106-106l106,106L279.9,586.6z"/>
		<path fill="#F9BB2D" d="M295.6,497.9c-0.2,0-0.5-0.1-0.7-0.2l-5.7-3.2l-2.3,3.9l7.3,4.2l6.6-3l-0.7-7.2l-7.3-4.2l-2.1,3.6l5.7,3.2
			c0.7,0.4,1,1.3,0.6,2C296.6,497.6,296.1,497.9,295.6,497.9z"/>
		<path fill="#F9BB2D" d="M234.4,509.4c-0.2-1,0-2,0.6-2.9l9.5-14.4l5.9-13.9c-0.5-1.2-0.6-2.6,0-3.9l0.6-1.4l-3.6-2
			c-0.4,0.3-0.9,0.5-1.5,0.6c-0.1,0-0.2,0-0.3,0c-1.5,0-2.8-1.2-3-2.7l0-0.5l-1.8-1c-0.7-0.4-1-1.3-0.6-2c0.4-0.7,1.3-1,2-0.6l0,0
			l-1-10.5c-0.1-1.6,0.9-3,2.5-3.2l12.5-2.1c1.6-0.3,3.2,0.8,3.5,2.5c0.1,0.4,0,0.9-0.1,1.3c1.4-1.7,3.7-2.4,5.8-1.5
			c2.1,0.9,3.2,3,3,5.1c0.6-1,1.7-1.6,3-1.5c1.6,0.2,2.8,1.7,2.6,3.4l-2.1,15.8l6,11c0,0.1,0,0.1,0.1,0.2l10,5.6l2.9-4.9
			c0.4-0.7,1.3-1,2-0.5l9.3,5.4c0.4,0.2,0.7,0.7,0.7,1.2l0,0.5c1.9-1.2,5.1-3,7.2-2.4c2.3,0.7,4.4,4.8,5.3,6.7l9.1,13.1h6.1
			l28.7-28.7l-79.4-79.4l-79.4,79.4l28.7,28.7H234.4z M267.6,434.9c4.2-0.7,8.1,2.1,8.8,6.3c0.7,4.2-2.1,8.1-6.3,8.8
			c-4.2,0.7-8.1-2.1-8.8-6.3C260.6,439.6,263.4,435.6,267.6,434.9z"/>
		<path fill="#F9BB2D" d="M313,497.9c-0.1-0.1-0.1-0.2-0.1-0.3c-1.1-2.5-2.7-5-3.4-5.2c-1-0.3-4.4,1.6-6,2.9l0.5,5.1
			c0.1,0.6-0.3,1.2-0.9,1.5l-8.2,3.7c-0.2,0.1-0.4,0.1-0.6,0.1c-0.3,0-0.5-0.1-0.8-0.2l-2.9-1.7c-1.2,1.3-3.4,3.6-5,5.4
			c1.5,0,3.5,0,5.9,0h2.8c7.8,0,18.1-0.1,26.7-0.2L313,497.9z"/>
		<path fill="#F9BB2D" d="M268,457.7l-7.2,17.3l7.4,4.2l-2-3.6c-0.3-0.6-0.4-1.2-0.3-1.8L268,457.7z"/>
		<path fill="#F9BB2D" d="M284.1,500.2c-0.3-0.2-0.6-0.5-0.7-0.9c-0.1-0.4,0-0.8,0.1-1.1l3-5.2l-8.9-5c-0.2,0.3-0.5,0.5-0.8,0.7
			c-0.5,0.3-1,0.4-1.4,0.4c-1.1,0-2.1-0.6-2.6-1.6l-1.8-3.3l-6.4-3.6l5,5.4c0.7,0.7,1.1,1.7,1.1,2.7v20c0,0.2,0,0.5-0.1,0.7h10.8
			c0.8-0.9,3.9-4.2,6.5-7L284.1,500.2z"/>
		<path fill="#F9BB2D" d="M262.7,509.4c0-0.2-0.1-0.5-0.1-0.7v-18.4l-6-6.4l-4.9,11.7c-0.1,0.2-0.2,0.4-0.3,0.6l-8.7,13.2H262.7z"/>
		<path fill="#F9BB2D" d="M258.8,453.8c-0.4,0.4-1,0.7-1.6,0.8l-9.8,1.7l1.1,11.9l3.5,2L258.8,453.8z"/>
		<path fill="#F9BB2D" d="M279.9,560.1l47.8-47.8h-30.9c-2.6,0-4.7,0-6.5,0c-1.6,0-2.8,0-3.9,0h-18.3c-0.5,0.2-0.9,0.3-1.5,0.3
			s-1-0.1-1.5-0.3h-25.4c-0.5,0.2-1,0.3-1.5,0.3c-0.5,0-1-0.1-1.4-0.3h-4.7L279.9,560.1z"/>
		<path fill="#F26422" d="M367.9,483.5c1.6-1.6,1.6-4.1,0-5.7l-85.1-85.1c-1.6-1.6-4.1-1.6-5.7,0L192,477.8c-1.6,1.6-1.6,4.1,0,5.7
			l85.1,85.1c0.8,0.8,1.8,1.2,2.8,1.2c1.1,0,2.1-0.4,2.8-1.2L367.9,483.5z M279.9,401.2l79.4,79.4l-28.7,28.7h-6.1l-9.1-13.1
			c-0.9-1.9-3-6.1-5.3-6.7c-2.1-0.6-5.3,1.1-7.2,2.4l0-0.5c0-0.5-0.3-0.9-0.7-1.2l-9.3-5.4c-0.7-0.4-1.6-0.2-2,0.5l-2.9,4.9l-10-5.6
			c0-0.1,0-0.1-0.1-0.2l-6-11l2.1-15.8c0.2-1.6-0.9-3.1-2.6-3.4c-1.2-0.2-2.4,0.5-3,1.5c0.2-2.1-0.9-4.2-3-5.1
			c-2.1-0.9-4.5-0.2-5.8,1.5c0.1-0.4,0.1-0.8,0.1-1.3c-0.3-1.6-1.8-2.7-3.5-2.5l-12.5,2.1c-1.5,0.3-2.6,1.7-2.5,3.2l1,10.5l0,0
			c-0.7-0.4-1.6-0.2-2,0.6c-0.4,0.7-0.2,1.6,0.6,2l1.8,1l0,0.5c0.1,1.6,1.5,2.7,3,2.7c0.1,0,0.2,0,0.3,0c0.5-0.1,1-0.3,1.5-0.6
			l3.6,2l-0.6,1.4c-0.5,1.3-0.5,2.7,0,3.9l-5.9,13.9l-9.5,14.4c-0.6,0.9-0.8,1.9-0.6,2.9h-5.2l-28.7-28.7L279.9,401.2z M291.3,509.4
			c-2.3,0-4.4,0-5.9,0c1.7-1.8,3.8-4.1,5-5.4l2.9,1.7c0.2,0.1,0.5,0.2,0.8,0.2c0.2,0,0.4,0,0.6-0.1l8.2-3.7c0.6-0.3,0.9-0.9,0.9-1.5
			l-0.5-5.1c1.6-1.3,5.1-3.2,6-2.9c0.7,0.2,2.3,2.7,3.4,5.2c0,0.1,0.1,0.2,0.1,0.3l7.8,11.3c-8.6,0.1-18.9,0.2-26.7,0.2H291.3z
			 M270.6,509.4c0-0.2,0.1-0.5,0.1-0.7v-20c0-1-0.4-2-1.1-2.7l-5-5.4l6.4,3.6l1.8,3.3c0.5,1,1.6,1.6,2.6,1.6c0.5,0,1-0.1,1.4-0.4
			c0.3-0.2,0.6-0.4,0.8-0.7l8.9,5l-3,5.2c-0.2,0.3-0.3,0.8-0.1,1.1c0.1,0.4,0.4,0.7,0.7,0.9l3.8,2.2c-2.6,2.8-5.7,6.1-6.5,7H270.6z
			 M248.5,468.1l-1.1-11.9l9.8-1.7c0.6-0.1,1.2-0.4,1.6-0.8l-6.8,16.3L248.5,468.1z M266.2,475.7l2,3.6l-7.4-4.2l7.2-17.3l-2.1,16.1
			C265.8,474.5,265.9,475.1,266.2,475.7z M251.3,496.1c0.1-0.2,0.2-0.4,0.3-0.6l4.9-11.7l6,6.4v18.4c0,0.2,0,0.5,0.1,0.7h-20
			L251.3,496.1z M296.3,495.1l-5.7-3.2l2.1-3.6l7.3,4.2l0.7,7.2l-6.6,3l-7.3-4.2l2.3-3.9l5.7,3.2c0.2,0.1,0.5,0.2,0.7,0.2
			c0.5,0,1-0.3,1.3-0.8C297.3,496.4,297,495.5,296.3,495.1z M236.9,512.4c0.5,0.2,1,0.3,1.4,0.3c0.5,0,1-0.1,1.5-0.3h25.4
			c0.5,0.2,0.9,0.3,1.5,0.3s1-0.1,1.5-0.3h18.3c1.1,0,2.4,0,3.9,0c1.8,0,3.9,0,6.5,0h30.9l-47.8,47.8l-47.8-47.8H236.9z"/>
		
			<ellipse transform="matrix(0.986 -0.1666 0.1666 0.986 -69.9759 50.9951)" fill="#F26422" cx="268.9" cy="442.5" rx="7.7" ry="7.7"/>
	</g>
</g>
</svg>
